PathFileType	4	(X/Y/Z)	./resultDataOpenSim/trcMotMarkerGrf/sub09/qtm-02-07.trc
DataRate	CameraRate	NumFrames	NumMarkers	Units	OrigDataRate	OrigDataStartFrame	OrigNumFrames
250.000000	250.000000	10	24	m	250.000000	61	485
Frame#	Time	L.Toe.Tip			R.Toe.Tip			L.Ankle.Lat			R.Ankle.Lat			L.Ankle.Med			R.Ankle.Med			L.Heel			R.Heel			L.Knee.Lat			R.Knee.Lat			L.Knee.Med			R.Knee.Med			L.Thigh.Upper			R.Thigh.Upper			L.ASIS			R.ASIS			V.Sacral			L.Acromium			R.Acromium			C7			L.Elbow			R.Elbow			L.Wrist.Lat			R.Wrist.Lat
		X1	Y1	Z1	X2	Y2	Z2	X3	Y3	Z3	X4	Y4	Z4	X5	Y5	Z5	X6	Y6	Z6	X7	Y7	Z7	X8	Y8	Z8	X9	Y9	Z9	X10	Y10	Z10	X11	Y11	Z11	X12	Y12	Z12	X13	Y13	Z13	X14	Y14	Z14	X15	Y15	Z15	X16	Y16	Z16	X17	Y17	Z17	X18	Y18	Z18	X19	Y19	Z19	X20	Y20	Z20	X21	Y21	Z21	X22	Y22	Z22	X23	Y23	Z23	X24	Y24	Z24

61	0.24	-1.3822809	0.090623469	-0.050496157	-0.66460466	0.03977967	0.072684354	-1.4007785	0.2468934	-0.092259848	-0.80983345	0.053538435	0.10455197	-1.3727722	0.23006459	-0.00011680255	-0.80385788	0.091469493	0.014805114	-1.4594122	0.29294919	-0.041296109	-0.87956326	0.031915416	0.057437409	-1.0279104	0.42486489	-0.12271696	-0.76426555	0.50623903	0.1642664	-1.0124756	0.41174958	0.0018604614	-0.78287252	0.49336904	0.037506076	-0.99171638	0.83165268	-0.14193247	-0.95928937	0.85984998	0.23074881	-0.9010664	0.91850361	-0.089499361	-0.89122627	0.94493626	0.15073689	-1.0651537	0.9863506	0.038752274	-0.89106336	1.3887331	-0.12533003	-0.93079681	1.3893178	0.20095588	-0.9793121	1.4397906	0.033015288	-0.96339775	1.0191982	-0.18962312	-1.0791419	1.0613265	0.27871978	-0.7257212	0.88629994	-0.18016708	-0.97431954	0.81446605	0.32899468
62	0.244	-1.3691575	0.093023385	-0.052242364	-0.66455491	0.039731183	0.072497529	-1.3880306	0.249429	-0.091959624	-0.81028102	0.053407702	0.10522649	-1.3598281	0.23176816	3.6106851e-05	-0.80351184	0.091433821	0.014644086	-1.446972	0.29483022	-0.039894993	-0.87961489	0.031902186	0.057457673	-1.01468	0.425326	-0.12229723	-0.76036107	0.50582389	0.16419896	-0.99960662	0.41202323	0.0026655495	-0.77957562	0.49310007	0.037324277	-0.98508617	0.83226291	-0.1417212	-0.9529685	0.86100483	0.23094292	-0.89506999	0.91948671	-0.089417309	-0.88484894	0.94590119	0.15071992	-1.0590839	0.98749131	0.0388485	-0.88506016	1.3896326	-0.12531531	-0.92428904	1.3902747	0.20102045	-0.97318754	1.440934	0.033344961	-0.95726941	1.0201435	-0.18843364	-1.0721794	1.0616142	0.27913368	-0.72182846	0.88372917	-0.18074369	-0.96508052	0.81536748	0.32843046
63	0.248	-1.3556457	0.095170448	-0.053865754	-0.66452287	0.039669307	0.072349558	-1.3750235	0.25163629	-0.091652343	-0.8106644	0.053378525	0.10568522	-1.3466154	0.23328626	0.00020361548	-0.8031791	0.09138894	0.014475833	-1.4344168	0.29634693	-0.038599524	-0.87968366	0.031878265	0.057484516	-1.0015423	0.42597559	-0.12185379	-0.75685708	0.50530472	0.16414899	-0.98681583	0.41241116	0.003504994	-0.77634331	0.49284737	0.037170489	-0.97848172	0.83302387	-0.14155738	-0.94664611	0.86224801	0.231152	-0.88904941	0.92055398	-0.089324972	-0.87857301	0.94698578	0.15072726	-1.0531314	0.98866816	0.038768482	-0.87914346	1.3905898	-0.12533864	-0.91779948	1.3912953	0.20106971	-0.96691402	1.4421046	0.034021426	-0.9510027	1.0212083	-0.18675764	-1.0652339	1.0620272	0.27954089	-0.71800079	0.88125099	-0.18131684	-0.95584514	0.81637299	0.32780804
64	0.252	-1.341771	0.097073254	-0.0553636	-0.66450831	0.039598891	0.072239363	-1.3617856	0.25351972	-0.091359006	-0.81092302	0.053420469	0.10591459	-1.3331248	0.23464848	0.00034118123	-0.80291642	0.091337609	0.01429943	-1.421671	0.2976293	-0.037648594	-0.87976332	0.031859735	0.057486471	-0.98845174	0.42681581	-0.12138402	-0.75383843	0.50468827	0.16406646	-0.97391419	0.41296118	0.0042845123	-0.77315955	0.49260931	0.037034844	-0.9719189	0.83392543	-0.14142318	-0.94043887	0.86354111	0.23135283	-0.88296321	0.92172512	-0.089193721	-0.87245202	0.94817604	0.1508147	-1.0472904	0.98988453	0.038491961	-0.87322703	1.3916016	-0.12537266	-0.91136585	1.3923928	0.20111601	-0.96063003	1.4433231	0.03477032	-0.94466496	1.0223967	-0.18466936	-1.0582966	1.0625616	0.27994847	-0.71431671	0.87888211	-0.18190686	-0.94662115	0.81748152	0.32712922
65	0.256	-1.3275337	0.09874157	-0.056745041	-0.66451101	0.039540943	0.072157483	-1.3483582	0.25508646	-0.091090906	-0.81105882	0.053498896	0.10597881	-1.3194532	0.23584047	0.00044111115	-0.80276647	0.091288638	0.014122162	-1.4086663	0.29882344	-0.037291072	-0.87984491	0.031862743	0.057433603	-0.97539363	0.42783843	-0.12086181	-0.75113498	0.50404053	0.16394457	-0.96087809	0.4136916	0.0050009062	-0.770027	0.49238297	0.036942404	-0.96540981	0.83495722	-0.14128818	-0.93467837	0.86482289	0.23147714	-0.87681242	0.92302081	-0.089012872	-0.86642071	0.94944474	0.15094784	-1.0414967	0.99116865	0.038174096	-0.86736579	1.392685	-0.12541878	-0.90501067	1.393578	0.20116537	-0.95446997	1.4446076	0.035311905	-0.93845612	1.0236774	-0.18261034	-1.0513742	1.0631925	0.28035207	-0.71090053	0.87663311	-0.18255226	-0.9374215	0.81869841	0.32639798
66	0.26	-1.3129183	0.10018276	-0.058012343	-0.66453098	0.039513401	0.072100255	-1.3347795	0.25634421	-0.090844911	-0.81110979	0.053607167	0.10594656	-1.3057876	0.23680654	0.00056226251	-0.80271104	0.091252048	0.013962842	-1.3954058	0.29994129	-0.037534752	-0.87992285	0.031889712	0.057324179	-0.96236808	0.42903071	-0.12026545	-0.74843415	0.50345977	0.16381483	-0.94776941	0.41459707	0.0057248092	-0.76701335	0.4921667	0.036988802	-0.95890316	0.83612344	-0.14110917	-0.92985547	0.86601103	0.23142103	-0.87067448	0.92443792	-0.088800204	-0.86035681	0.95077462	0.15107836	-1.0356682	0.99253971	0.038007185	-0.86166231	1.3938559	-0.12549211	-0.89873467	1.3948529	0.20122059	-0.94849759	1.4459612	0.035502117	-0.93253531	1.0250208	-0.18100413	-1.0444709	1.0638975	0.28074893	-0.70782244	0.8745086	-0.18326562	-0.9282524	0.82003392	0.32562034
67	0.264	-1.2979138	0.10140852	-0.059151359	-0.66456796	0.039516196	0.072071524	-1.3210732	0.25730224	-0.090609736	-0.81113614	0.05373505	0.10589759	-1.2923443	0.23748924	0.00081868423	-0.80269934	0.091231425	0.013840742	-1.3819963	0.30079579	-0.038013699	-0.87999647	0.031930277	0.057183927	-0.94938112	0.43038349	-0.1195996	-0.74554908	0.50300372	0.16370861	-0.93464659	0.41566612	0.0065038872	-0.76424295	0.49196217	0.037295423	-0.95228167	0.83743787	-0.14082982	-0.92616053	0.86706258	0.23114618	-0.86462983	0.92595923	-0.088575005	-0.85417284	0.95215636	0.15121376	-1.0297696	0.99398538	0.038052771	-0.85610302	1.3951165	-0.12558545	-0.89252658	1.3962149	0.2012818	-0.94273409	1.4473925	0.035299149	-0.92683453	1.0264292	-0.17988725	-1.0375864	1.0646677	0.28114203	-0.70501933	0.87251512	-0.18400025	-0.91911005	0.82149493	0.32480317
68	0.268	-1.2825386	0.10243032	-0.060128315	-0.66462094	0.039536451	0.072076842	-1.3072503	0.25796708	-0.090377652	-0.8111729	0.053857878	0.10588448	-1.2792736	0.23786119	0.0013056083	-0.8027018	0.091222666	0.013761517	-1.3685709	0.30117424	-0.038300455	-0.88006502	0.031975229	0.057040774	-0.93645292	0.43188668	-0.11888112	-0.74253557	0.5026496	0.16365558	-0.92157797	0.41689411	0.0073160611	-0.76179271	0.49177126	0.037878945	-0.9454835	0.83889909	-0.14043087	-0.92297402	0.86805889	0.23079116	-0.85868161	0.92757265	-0.088332481	-0.84783534	0.95357772	0.15139187	-1.0238155	0.99547427	0.038260079	-0.85059513	1.3964608	-0.12567813	-0.88636728	1.3976592	0.20134403	-0.93715241	1.4489059	0.034772235	-0.92112309	1.0279225	-0.17901962	-1.0307163	1.0655071	0.28153479	-0.70235819	0.87066207	-0.18468557	-0.90998958	0.8230769	0.32395505
69	0.272	-1.2668616	0.10323835	-0.060891315	-0.66468858	0.039561454	0.07211981	-1.2933152	0.25834205	-0.090150618	-0.81121513	0.053961705	0.10590379	-1.2663996	0.23795296	0.0019550777	-0.80271482	0.091222738	0.013720787	-1.3551811	0.30102756	-0.038282911	-0.88012436	0.032022096	0.056909708	-0.92361509	0.43353176	-0.11812627	-0.73962089	0.50232086	0.16371449	-0.90860663	0.41828848	0.0081121343	-0.7595802	0.49159266	0.038563095	-0.93862366	0.84047035	-0.13998389	-0.91917764	0.86916761	0.23060247	-0.85276963	0.92927164	-0.088050155	-0.8413575	0.95502369	0.15163794	-1.0178376	0.99698196	0.038563441	-0.84508403	1.3978793	-0.12575822	-0.88024056	1.3991783	0.20140359	-0.93163827	1.4504714	0.034153891	-0.91529001	1.0295217	-0.17819198	-1.0238518	1.0664196	0.2819216	-0.69975135	0.8689575	-0.1852864	-0.90089476	0.8247654	0.32308566
70	0.276	-1.2509878	0.10379962	-0.061387609	-0.66477162	0.039585461	0.072201475	-1.2792699	0.25843335	-0.08993311	-0.81124902	0.054047993	0.10593067	-1.2529819	0.23787679	0.0024586365	-0.80273874	0.091236405	0.013716145	-1.3417955	0.30042551	-0.038104359	-0.88017027	0.032069321	0.056794651	-0.91087936	0.43532075	-0.11736638	-0.7370406	0.5019731	0.16393433	-0.8957272	0.41985911	0.0088793551	-0.75742487	0.4914203	0.03911301	-0.93190357	0.84209605	-0.13959945	-0.91414975	0.87048566	0.23071545	-0.84684521	0.9310474	-0.087714214	-0.83483907	0.95647442	0.15194911	-1.0118629	0.99850561	0.038916815	-0.83957455	1.3993624	-0.12582062	-0.87415213	1.400766	0.20146577	-0.92605565	1.452045	0.033701734	-0.90949694	1.031241	-0.17734169	-1.0169858	1.0674016	0.28229382	-0.69716943	0.8674097	-0.18580787	-0.89183548	0.82654757	0.32220011
